<?xml version="1.0" standalone="no"?>
<!DOCTYPE svg PUBLIC "-//W3C//DTD SVG 20010904//EN"
 "http://www.w3.org/TR/2001/REC-SVG-20010904/DTD/svg10.dtd">
<svg version="1.0" xmlns="http://www.w3.org/2000/svg"
 width="310.000000pt" height="309.000000pt" viewBox="0 0 310.000000 309.000000"
 preserveAspectRatio="xMidYMid meet">

<g transform="translate(0.000000,309.000000) scale(0.100000,-0.100000)"
fill="#000000" stroke="none">
<path d="M2057 2943 c-4 -3 -7 -22 -7 -42 l1 -36 14 25 c22 39 16 78 -8 53z"/>
<path d="M1786 2916 c-22 -17 -27 -27 -21 -45 6 -21 8 -21 25 -6 17 15 35 63
28 71 -2 2 -17 -7 -32 -20z"/>
<path d="M2016 2923 c-3 -3 -6 -22 -6 -42 0 -39 14 -33 24 11 6 26 -4 44 -18
31z"/>
<path d="M1960 2878 c0 -18 5 -40 10 -48 7 -11 10 -2 10 33 0 26 -4 47 -10 47
-5 0 -10 -15 -10 -32z"/>
<path d="M1702 2873 c-20 -36 -15 -60 13 -65 14 -3 28 -1 32 5 3 6 1 7 -5 3
-8 -5 -12 1 -13 16 0 13 -4 32 -8 43 -8 19 -8 19 -19 -2z"/>
<path d="M1920 2858 c0 -18 5 -40 10 -48 7 -11 10 -2 10 33 0 26 -4 47 -10 47
-5 0 -10 -15 -10 -32z"/>
<path d="M1512 2860 c-17 -19 -22 -35 -21 -72 2 -44 11 -60 22 -40 2 4 3 2 2
-3 -2 -6 15 -19 36 -29 44 -22 56 -44 33 -61 -14 -10 -14 -15 -4 -34 6 -13 14
-20 18 -17 3 4 0 12 -6 18 -17 17 -15 25 10 31 12 4 19 9 15 13 -4 4 2 21 13
39 17 28 18 34 5 52 -8 11 -11 24 -7 28 4 5 2 6 -3 2 -6 -3 -19 2 -30 10 -20
15 -20 15 3 10 12 -3 20 -1 16 4 -3 5 -10 9 -16 9 -7 0 -23 14 -38 32 l-26 31
-22 -23z"/>
<path d="M1880 2856 c0 -8 -3 -23 -7 -33 -6 -16 -5 -16 10 -4 18 15 23 51 7
51 -5 0 -10 -6 -10 -14z"/>
<path d="M2103 2835 c29 -26 47 -32 47 -16 0 13 -41 41 -60 41 -10 -1 -6 -9
13 -25z"/>
<path d="M2040 2841 c0 -15 48 -67 55 -59 3 3 1 15 -6 26 -14 23 -49 46 -49
33z"/>
<path d="M2011 2808 c18 -35 30 -48 40 -42 13 7 -7 41 -32 55 -19 10 -20 9 -8
-13z"/>
<path d="M1403 2807 c0 -7 9 -13 19 -13 10 0 18 1 18 3 0 1 -8 7 -18 12 -13 7
-19 6 -19 -2z"/>
<path d="M1967 2793 c9 -27 24 -43 40 -43 19 0 0 36 -27 50 -17 9 -19 8 -13
-7z"/>
<path d="M734 2789 c1 -7 10 -13 19 -15 9 -1 15 2 11 7 -3 5 -9 7 -14 4 -4 -3
-11 0 -13 5 -3 6 -4 5 -3 -1z"/>
<path d="M853 2787 c0 -8 6 -14 14 -14 9 0 10 4 2 14 -6 7 -12 13 -14 13 -1 0
-2 -6 -2 -13z"/>
<path d="M1367 2788 c-14 -11 -15 -18 -4 -49 11 -31 15 -35 34 -28 15 5 25 3
33 -7 14 -16 40 -19 40 -4 0 6 -9 10 -20 10 -18 0 -19 3 -10 21 15 26 -3 49
-37 49 -14 0 -21 4 -18 10 8 13 2 13 -18 -2z"/>
<path d="M1935 2770 c-7 -12 11 -40 26 -40 14 0 10 26 -5 39 -10 9 -16 9 -21
1z"/>
<path d="M1460 2745 c0 -26 20 -41 42 -32 8 4 4 8 -10 13 -16 5 -21 12 -17 25
4 11 2 19 -4 19 -6 0 -11 -11 -11 -25z"/>
<path d="M2072 2730 c-32 -30 -39 -68 -16 -85 11 -8 27 -15 37 -15 17 0 22
-11 10 -23 -3 -4 -13 -1 -22 6 -26 21 -70 37 -76 27 -13 -20 44 -56 83 -51 6
1 12 -8 12 -21 0 -33 14 -50 44 -53 15 -2 24 1 20 6 -9 14 25 61 38 53 7 -4 8
-3 4 5 -4 6 -11 9 -16 6 -4 -3 -11 2 -14 11 -3 8 -2 13 3 10 10 -7 34 20 37
41 3 20 -42 36 -67 22 -27 -14 -84 -2 -70 15 15 18 32 66 23 66 -5 0 -18 -9
-30 -20z"/>
<path d="M2006 2709 c-24 -19 -36 -59 -18 -59 13 0 39 32 46 58 9 27 6 27 -28
1z"/>
<path d="M2132 2714 c-29 -20 -28 -35 2 -30 23 4 76 34 76 42 0 11 -58 2 -78
-12z"/>
<path d="M1206 2711 c-3 -5 1 -15 10 -22 13 -10 17 -10 24 1 5 8 6 18 4 22 -7
11 -31 10 -38 -1z"/>
<path d="M735 2699 c-3 -4 2 -6 10 -5 21 3 28 13 10 13 -9 0 -18 -4 -20 -8z"/>
<path d="M1810 2700 c0 -5 7 -10 16 -10 8 0 12 5 9 10 -3 6 -10 10 -16 10 -5
0 -9 -4 -9 -10z"/>
<path d="M1512 2690 c-20 -8 -21 -13 -12 -31 7 -11 14 -18 17 -15 3 3 0 12 -7
21 -10 13 -9 15 9 15 11 0 21 5 21 10 0 6 -1 10 -2 9 -2 0 -13 -4 -26 -9z"/>
<path d="M1688 2693 c7 -3 16 -2 19 1 4 3 -2 6 -13 5 -11 0 -14 -3 -6 -6z"/>
<path d="M1640 2681 c0 -5 7 -12 16 -15 14 -5 15 -4 4 9 -14 17 -20 19 -20 6z"/>
<path d="M1935 2680 c-3 -6 1 -7 9 -4 18 7 21 14 7 14 -6 0 -13 -4 -16 -10z"/>
<path d="M878 2664 c-13 -13 -19 -14 -35 -3 -28 17 -53 5 -53 -25 0 -13 -7
-27 -16 -30 -23 -9 -24 -8 -24 17 0 17 -2 19 -9 8 -15 -23 -1 -42 28 -39 14 1
31 -1 38 -5 7 -4 33 -14 58 -21 45 -14 46 -14 76 17 l31 30 -23 12 c-16 9 -19
14 -8 18 14 6 -16 2 -67 -8 l-26 -6 28 25 c16 14 27 26 24 26 -3 0 -13 -7 -22
-16z"/>
<path d="M910 2676 c0 -2 7 -7 16 -10 8 -3 12 -2 9 4 -6 10 -25 14 -25 6z"/>
<path d="M1371 2667 c-8 -10 -7 -19 5 -33 14 -18 15 -18 4 4 -9 18 -8 22 4 22
8 0 18 5 21 10 9 15 -21 12 -34 -3z"/>
<path d="M1541 2667 c-8 -10 -7 -19 4 -33 8 -10 15 -14 15 -8 0 5 -5 15 -12
22 -9 9 -6 14 13 21 15 6 18 10 8 10 -9 1 -22 -5 -28 -12z"/>
<path d="M1710 2670 c0 -5 5 -10 10 -10 6 0 10 5 10 10 0 6 -4 10 -10 10 -5 0
-10 -4 -10 -10z"/>
<path d="M760 2652 c0 -11 4 -23 9 -27 6 -3 8 4 6 16 -6 30 -15 37 -15 11z"/>
<path d="M1418 2659 c-22 -12 -23 -32 -3 -49 12 -10 15 -10 15 1 1 10 4 8 11
-3 5 -10 15 -18 21 -18 6 0 3 9 -7 20 -18 19 -17 20 3 20 12 0 22 5 22 10 0
14 -12 12 -36 -5 -20 -14 -34 -11 -34 7 0 4 7 8 15 8 8 0 15 5 15 10 0 12 0
12 -22 -1z"/>
<path d="M1059 2643 c-13 -16 -12 -17 4 -4 9 7 17 15 17 17 0 8 -8 3 -21 -13z"/>
<path d="M687 2626 c-6 -15 -10 -16 -22 -6 -11 9 -15 9 -15 1 0 -16 29 -26 42
-13 6 6 8 16 6 23 -3 9 -7 7 -11 -5z"/>
<path d="M1950 2612 c0 -7 11 -17 24 -22 13 -5 27 -14 31 -19 12 -20 26 -12
15 9 -6 11 -19 20 -28 20 -10 0 -23 5 -30 12 -9 9 -12 9 -12 0z"/>
<path d="M696 2591 c-4 -7 -5 -15 -2 -18 9 -9 19 4 14 18 -4 11 -6 11 -12 0z"/>
<path d="M660 2580 c0 -5 5 -10 11 -10 5 0 7 5 4 10 -3 6 -8 10 -11 10 -2 0
-4 -4 -4 -10z"/>
<path d="M2189 2558 c0 -2 -2 -11 -4 -21 -3 -15 -1 -16 11 -6 7 6 11 15 8 20
-5 9 -13 12 -15 7z"/>
<path d="M735 2531 c-3 -5 -1 -12 4 -15 5 -3 11 1 15 9 6 16 -9 21 -19 6z"/>
<path d="M960 2530 c0 -5 4 -10 9 -10 6 0 13 5 16 10 3 6 -1 10 -9 10 -9 0
-16 -4 -16 -10z"/>
<path d="M942 2510 c0 -14 2 -19 5 -12 2 6 2 18 0 25 -3 6 -5 1 -5 -13z"/>
<path d="M988 2513 c-10 -2 -18 -8 -18 -13 0 -17 12 -40 21 -40 6 0 5 9 -1 20
-9 17 -8 20 10 20 11 0 20 5 20 10 0 10 -3 11 -32 3z"/>
<path d="M753 2493 c9 -2 23 -2 30 0 6 3 -1 5 -18 5 -16 0 -22 -2 -12 -5z"/>
<path d="M2550 2465 c0 -8 7 -18 15 -21 21 -8 48 3 40 17 -5 8 -10 8 -18 0
-13 -13 -30 -15 -22 -2 3 5 1 12 -5 16 -5 3 -10 -1 -10 -10z"/>
<path d="M2530 2438 c0 -9 -2 -22 -3 -30 -2 -7 -2 -10 0 -5 3 4 9 5 14 1 13
-7 49 5 49 17 0 7 -6 7 -17 0 -14 -7 -21 -5 -30 12 -10 17 -12 18 -13 5z"/>
<path d="M866 2432 c-3 -6 -1 -14 5 -17 15 -10 25 3 12 16 -7 7 -13 7 -17 1z"/>
<path d="M2639 2383 c-13 -16 -12 -17 4 -4 16 13 21 21 13 21 -2 0 -10 -8 -17
-17z"/>
<path d="M2550 2380 c-8 -5 -12 -11 -9 -14 3 -3 14 1 25 9 21 16 8 20 -16 5z"/>
<path d="M2374 2366 c-9 -24 12 -44 28 -28 10 10 8 16 -5 29 -15 15 -17 15
-23 -1z"/>
<path d="M2604 2343 c4 -21 10 -47 13 -58 6 -19 6 -19 14 3 6 15 4 35 -6 58
-19 45 -29 43 -21 -3z"/>
<path d="M463 2340 c-5 -20 -7 -20 -24 -4 -11 10 -19 12 -19 6 0 -14 37 -35
43 -25 10 19 16 43 11 43 -3 0 -8 -9 -11 -20z"/>
<path d="M469 2298 c-10 -19 -12 -19 -21 -5 -5 10 -14 17 -20 17 -6 0 -3 -9 7
-20 10 -12 25 -18 32 -16 15 6 15 4 7 -19 -6 -14 -8 -14 -25 1 -11 10 -19 12
-19 6 0 -19 36 -33 48 -19 8 11 13 77 6 77 -2 0 -8 -10 -15 -22z"/>
<path d="M601 2282 c-7 -13 -7 -22 1 -30 15 -15 38 -16 38 -2 0 6 -3 9 -7 9
-27 -4 -35 1 -23 16 7 9 10 18 7 21 -3 3 -10 -3 -16 -14z"/>
<path d="M2661 2274 c-12 -15 -21 -32 -21 -39 0 -7 -14 0 -31 16 -35 33 -44
32 -36 -4 4 -13 21 -30 41 -39 34 -17 35 -16 50 8 17 25 33 84 23 84 -3 0 -15
-12 -26 -26z"/>
<path d="M561 2261 c-9 -16 -8 -22 8 -31 25 -13 31 -13 31 0 0 6 -10 10 -21
10 -18 0 -19 2 -9 15 7 9 10 18 7 21 -3 3 -10 -3 -16 -15z"/>
<path d="M525 2250 c-8 -26 1 -40 28 -40 l22 1 -22 12 c-17 9 -19 16 -12 30 7
11 7 17 0 17 -5 0 -12 -9 -16 -20z"/>
<path d="M387 2229 c-5 -20 -7 -21 -23 -5 -9 9 -19 14 -23 11 -9 -10 32 -36
47 -30 10 3 11 -1 7 -16 -5 -14 -3 -19 4 -15 10 7 10 61 -1 71 -3 3 -8 -4 -11
-16z"/>
<path d="M2686 2218 c-25 -24 -44 -68 -28 -68 13 0 49 42 57 68 3 12 4 22 1
22 -3 0 -16 -10 -30 -22z"/>
<path d="M2744 2194 c10 -39 23 -53 46 -47 26 7 54 39 41 48 -6 3 -22 -6 -35
-20 l-25 -26 -3 32 c-2 18 -9 35 -17 37 -11 4 -12 -2 -7 -24z"/>
<path d="M2581 2181 c11 -32 69 -67 69 -42 0 12 -59 71 -70 71 -5 0 -4 -13 1
-29z"/>
<path d="M350 2191 c0 -5 7 -12 16 -15 14 -5 15 -4 4 9 -14 17 -20 19 -20 6z"/>
<path d="M510 2185 c-16 -19 -6 -45 17 -44 17 1 17 2 1 6 -21 5 -23 14 -6 31
6 6 9 14 6 17 -3 3 -11 -1 -18 -10z"/>
<path d="M468 2166 c-10 -23 -9 -29 3 -37 19 -12 42 -11 34 1 -3 6 -13 10 -21
10 -12 0 -13 4 -4 21 7 11 9 23 6 26 -3 3 -11 -7 -18 -21z"/>
<path d="M2694 2151 c-18 -11 -35 -24 -39 -30 -11 -19 25 -24 44 -7 23 21 28
20 34 -4 3 -12 14 -20 25 -20 25 0 69 34 55 43 -6 4 -22 -3 -37 -14 -25 -20
-26 -20 -26 -2 0 11 -6 27 -12 36 -12 16 -15 16 -44 -2z"/>
<path d="M2567 2120 c5 -20 48 -60 63 -60 16 0 -3 41 -28 60 -32 25 -42 25
-35 0z"/>
<path d="M447 2089 c-4 -16 -3 -18 9 -8 16 13 19 29 5 29 -5 0 -11 -9 -14 -21z"/>
<path d="M2700 2101 c0 -6 4 -11 9 -11 5 0 12 -8 14 -17 4 -15 5 -15 6 -2 0 9
-6 22 -14 29 -10 9 -15 9 -15 1z"/>
<path d="M153 2016 c6 -37 40 -86 51 -75 10 10 -15 77 -36 95 l-21 19 6 -39z"/>
<path d="M491 2031 c-22 -14 -5 -41 27 -41 34 0 68 22 58 38 -8 14 -65 16 -85
3z"/>
<path d="M477 1950 c-3 -11 -1 -20 4 -20 5 0 9 -5 9 -11 0 -6 -6 -9 -14 -6
-18 7 -29 -19 -17 -41 5 -10 19 -26 30 -36 20 -19 23 -19 57 -3 38 18 39 39 1
30 -25 -7 -18 5 15 21 24 12 36 36 18 36 -7 0 -25 -9 -40 -20 l-28 -20 5 20
c3 11 14 20 24 20 28 0 32 17 7 34 -31 22 -65 20 -71 -4z"/>
<path d="M229 1940 c-1 -5 -2 -14 -3 -20 -2 -14 -12 -14 -47 0 -16 7 -32 10
-35 7 -9 -8 19 -47 38 -52 10 -3 27 -8 38 -11 17 -4 20 -1 20 25 0 16 5 33 10
36 6 3 10 10 10 16 0 12 -30 12 -31 -1z"/>
<path d="M2260 1929 c1 -13 7 -35 15 -49 l14 -25 1 36 c0 21 -7 42 -15 49 -13
10 -15 9 -15 -11z"/>
<path d="M2309 1945 c-10 -9 2 -53 17 -66 11 -9 14 -7 14 13 0 26 -22 63 -31
53z"/>
<path d="M2350 1938 c0 -26 12 -58 22 -58 14 0 5 63 -9 68 -7 2 -13 -2 -13
-10z"/>
<path d="M2400 1928 c0 -13 7 -33 15 -44 14 -18 14 -17 15 12 0 17 -7 37 -15
44 -13 10 -15 9 -15 -12z"/>
<path d="M2456 1942 c-11 -19 3 -77 17 -63 7 7 7 21 1 43 -7 22 -12 29 -18 20z"/>
<path d="M2160 1922 c0 -18 28 -52 43 -52 3 0 2 10 -2 23 -5 12 -14 21 -21 19
-6 -1 -9 2 -6 7 4 5 2 12 -4 16 -5 3 -10 -2 -10 -13z"/>
<path d="M2220 1918 c0 -13 7 -32 15 -42 14 -19 15 -19 15 6 0 33 -9 58 -21
58 -5 0 -9 -10 -9 -22z"/>
<path d="M2491 1920 c-1 -18 16 -46 23 -40 2 3 -2 16 -9 30 -8 15 -14 19 -14
10z"/>
<path d="M417 1857 c-19 -19 -16 -28 15 -63 13 -15 16 -24 9 -29 -7 -4 -10 -1
-9 7 2 8 -8 14 -25 16 -23 3 -28 8 -24 22 4 17 1 18 -26 13 -22 -5 -28 -3 -23
6 6 9 3 9 -13 0 -17 -11 -23 -10 -43 8 -16 14 -29 18 -43 13 -12 -4 -31 -2
-49 7 -27 14 -28 14 -21 -3 4 -11 10 -27 12 -36 5 -15 26 -23 54 -20 3 1 12
-10 19 -24 8 -14 20 -22 28 -19 7 3 18 5 23 5 6 0 8 4 4 9 -3 5 -1 12 4 15 5
3 9 -13 9 -35 1 -31 -3 -39 -14 -35 -16 6 -18 -2 -5 -24 14 -21 2 -33 -17 -18
-14 11 -15 10 -7 -7 4 -11 9 -31 11 -45 1 -14 3 -26 3 -27 1 -1 12 2 25 7 14
5 27 5 33 -1 6 -6 10 -4 10 5 0 8 -4 13 -9 10 -4 -3 -8 0 -8 5 0 10 14 15 33
12 5 -1 6 3 3 8 -7 11 41 51 61 51 8 0 12 4 9 9 -4 5 3 7 14 4 29 -8 70 5 70
22 0 11 -7 14 -23 10 -17 -5 -24 -2 -24 9 0 8 13 18 28 21 15 4 33 13 40 21 9
11 8 14 -9 14 -12 0 -24 -4 -27 -10 -3 -5 -15 -14 -25 -20 -15 -8 -21 -6 -30
11 -11 19 -10 20 9 9 19 -10 20 -9 11 16 -6 14 -18 36 -28 48 -16 21 -18 21
-35 3z m-19 -162 c-3 -3 -9 2 -12 12 -6 14 -5 15 5 6 7 -7 10 -15 7 -18z"/>
<path d="M2295 1824 c-19 -40 -11 -60 11 -30 12 18 20 66 10 66 -2 0 -11 -16
-21 -36z"/>
<path d="M2343 1837 c-7 -15 -13 -35 -13 -45 0 -15 1 -15 16 0 9 9 14 27 12
44 l-3 29 -12 -28z"/>
<path d="M2398 1843 c-20 -22 -27 -51 -13 -55 12 -3 38 48 33 63 -2 6 -11 2
-20 -8z"/>
<path d="M2458 1839 c-28 -21 -39 -54 -16 -47 11 4 55 69 46 68 -1 0 -15 -10
-30 -21z"/>
<path d="M2202 1827 c-23 -24 -29 -47 -12 -47 10 0 44 59 37 66 -2 2 -13 -6
-25 -19z"/>
<path d="M2246 1832 c-10 -12 -16 -29 -14 -39 3 -15 6 -14 22 9 23 35 17 57
-8 30z"/>
<path d="M2477 1806 c-4 -11 2 -14 24 -14 16 1 32 6 36 11 3 6 1 7 -5 3 -6 -4
-20 -2 -31 3 -14 8 -20 7 -24 -3z"/>
<path d="M153 1782 c10 -10 17 -23 17 -28 0 -11 48 -34 72 -34 17 0 16 3 -4
34 -12 19 -28 32 -34 29 -7 -2 -15 0 -19 6 -3 6 -16 11 -27 11 -20 0 -20 -1
-5 -18z"/>
<path d="M2458 1748 c5 -5 16 -8 23 -6 8 3 3 7 -10 11 -17 4 -21 3 -13 -5z"/>
<path d="M2481 1684 c0 -11 3 -14 6 -6 3 7 2 16 -1 19 -3 4 -6 -2 -5 -13z"/>
<path d="M2418 1683 c7 -3 16 -2 19 1 4 3 -2 6 -13 5 -11 0 -14 -3 -6 -6z"/>
<path d="M2800 1680 c0 -5 7 -10 16 -10 8 0 12 5 9 10 -3 6 -10 10 -16 10 -5
0 -9 -4 -9 -10z"/>
<path d="M490 1664 c0 -14 3 -14 15 -4 8 7 15 14 15 16 0 2 -7 4 -15 4 -8 0
-15 -7 -15 -16z"/>
<path d="M2447 1641 c-4 -17 -3 -21 5 -13 5 5 8 16 6 23 -3 8 -7 3 -11 -10z"/>
<path d="M2500 1651 c0 -15 41 -61 54 -61 23 0 6 47 -20 59 -30 13 -34 14 -34
2z"/>
<path d="M2813 1653 c-15 -6 -17 -61 -3 -83 8 -12 10 -12 10 5 1 19 2 18 22
-5 l21 -25 -6 33 c-6 27 -4 32 13 32 11 0 20 5 20 10 0 15 -37 12 -53 -5 -13
-13 -16 -13 -21 1 -8 20 -8 24 2 23 22 -4 42 2 37 11 -7 11 -22 12 -42 3z"/>
<path d="M1300 1625 c-6 -8 -10 -22 -8 -32 4 -20 29 -24 36 -5 2 8 -2 10 -13
6 -13 -5 -16 -2 -13 12 4 25 39 30 55 8 22 -30 15 -60 -33 -156 l-46 -92 -19
49 c-28 72 -52 173 -44 185 4 6 -5 10 -21 10 -20 0 -24 -3 -16 -12 5 -7 15
-38 21 -68 12 -55 46 -160 63 -192 7 -14 21 6 68 97 33 63 60 127 60 143 0 50
-61 82 -90 47z"/>
<path d="M2730 1620 c0 -17 -5 -19 -24 -14 -21 5 -25 1 -31 -25 -8 -36 2 -94
15 -86 5 3 11 18 15 35 4 19 11 27 21 23 12 -4 12 -8 -1 -26 -18 -25 -19 -56
-4 -77 9 -13 10 -13 6 1 -3 9 3 29 14 45 11 16 19 46 19 69 0 28 -3 36 -9 25
-6 -8 -7 -18 -5 -22 8 -13 -11 -9 -32 7 -19 14 -18 14 4 15 17 0 22 6 22 25 0
14 -2 25 -5 25 -3 0 -5 -9 -5 -20z"/>
<path d="M386 1613 c-6 -14 -5 -15 5 -6 7 7 10 15 7 18 -3 3 -9 -2 -12 -12z"/>
<path d="M455 1620 c-8 -14 21 -24 43 -15 16 7 15 8 -3 15 -27 12 -33 12 -40
0z"/>
<path d="M877 1614 c5 -15 -3 -16 -76 -9 -67 6 -86 4 -106 -9 -24 -16 -35 -56
-16 -56 15 0 22 18 9 22 -25 9 5 28 43 28 l39 0 0 -124 c0 -90 -3 -126 -12
-129 -7 -3 3 -5 22 -5 19 0 29 2 23 5 -10 3 -13 38 -13 124 l0 119 31 0 c17 0
39 5 50 10 20 11 27 40 9 40 -5 0 -7 -7 -3 -16z"/>
<path d="M2777 1623 c-4 -3 -7 -13 -7 -22 1 -13 3 -13 11 2 11 19 8 33 -4 20z"/>
<path d="M986 1597 c-23 -17 -17 -52 8 -52 11 0 21 6 24 13 2 7 -2 10 -12 6
-18 -7 -23 21 -5 31 23 15 59 -7 85 -51 51 -86 14 -194 -67 -194 -78 0 -125
138 -73 218 16 25 16 26 0 13 -64 -53 -59 -176 9 -229 74 -58 175 14 175 125
0 93 -85 163 -144 120z"/>
<path d="M1615 1596 c-16 -7 -41 -25 -54 -40 -18 -19 -34 -26 -61 -26 -39 0
-80 -23 -80 -46 0 -19 28 -30 43 -15 8 8 7 11 -6 11 -23 0 -22 17 2 30 30 15
64 13 58 -4 -18 -47 -27 -102 -22 -134 15 -100 16 -102 35 -90 18 11 18 13 -1
36 -35 45 -18 192 23 192 48 0 110 -104 95 -160 -4 -15 0 -20 16 -20 21 0 22
3 22 140 0 133 -1 140 -20 140 -11 -1 -33 -7 -50 -14z m37 -81 c2 -41 2 -75 0
-75 -1 0 -16 16 -33 35 -17 19 -39 37 -50 40 -10 4 -19 10 -19 15 0 9 78 60
92 60 3 0 8 -34 10 -75z"/>
<path d="M1775 1600 c9 -14 -24 -242 -37 -257 -8 -10 -3 -13 23 -13 21 0 29 3
21 8 -10 7 -10 29 3 112 9 57 17 105 18 107 2 1 15 -13 30 -32 16 -20 23 -36
17 -40 -15 -9 -12 -61 5 -75 35 -29 73 25 50 70 -12 24 -11 29 16 59 16 19 31
32 33 30 10 -13 30 -221 22 -229 -7 -7 2 -10 25 -10 20 0 29 4 22 8 -15 9 -47
224 -38 253 5 15 2 19 -20 19 -18 0 -25 -4 -22 -13 2 -7 -10 -30 -29 -52 l-33
-40 -36 35 c-23 22 -34 41 -31 52 3 14 -2 18 -21 18 -13 0 -21 -4 -18 -10z
m112 -140 c14 -22 7 -50 -12 -50 -20 0 -28 18 -21 46 8 29 17 30 33 4z"/>
<path d="M2245 1596 c-16 -7 -41 -25 -54 -40 -18 -19 -34 -26 -61 -26 -39 0
-80 -23 -80 -46 0 -19 28 -30 43 -15 8 8 7 11 -6 11 -23 0 -22 17 2 30 32 16
64 13 57 -6 -16 -41 -26 -101 -22 -124 2 -14 5 -36 5 -50 2 -35 15 -52 34 -44
15 5 15 8 -3 31 -23 30 -27 107 -8 160 14 38 21 40 66 13 39 -24 65 -80 60
-127 -3 -28 -1 -33 17 -33 19 0 20 6 20 140 0 133 -1 140 -20 140 -11 -1 -33
-7 -50 -14z m37 -81 c2 -41 2 -75 0 -75 -1 0 -16 16 -33 35 -17 19 -39 37 -50
40 -10 4 -19 10 -19 15 0 9 78 60 92 60 3 0 8 -34 10 -75z"/>
<path d="M2640 1587 c0 -9 -4 -17 -10 -17 -5 0 -7 -7 -4 -15 5 -12 2 -14 -17
-7 -13 5 -37 6 -54 3 l-29 -6 28 -18 c20 -13 38 -17 61 -13 27 5 34 12 39 38
3 18 2 36 -4 42 -7 7 -10 4 -10 -7z"/>
<path d="M447 1583 c-13 -12 -7 -23 12 -23 26 0 35 16 15 24 -19 7 -19 7 -27
-1z"/>
<path d="M2884 1575 c27 -21 53 -20 36 0 -7 8 -22 15 -34 15 -21 -1 -21 -1 -2
-15z"/>
<path d="M340 1566 c7 -7 13 -7 20 0 6 6 3 10 -10 10 -13 0 -16 -4 -10 -10z"/>
<path d="M2772 1545 c0 -16 2 -22 5 -12 2 9 2 23 0 30 -3 6 -5 -1 -5 -18z"/>
<path d="M300 1533 c0 -11 20 -40 20 -29 0 5 7 3 15 -4 9 -7 15 -8 15 -2 0 5
-11 17 -25 26 -14 9 -25 13 -25 9z"/>
<path d="M414 1525 c22 -17 56 -20 56 -6 0 11 -25 21 -53 21 -22 -1 -22 -1 -3
-15z"/>
<path d="M280 1499 c0 -5 5 -7 10 -4 6 3 10 8 10 11 0 2 -4 4 -10 4 -5 0 -10
-5 -10 -11z"/>
<path d="M426 1486 c3 -9 11 -16 16 -16 13 0 5 23 -10 28 -7 2 -10 -2 -6 -12z"/>
<path d="M2580 1494 c0 -25 67 -42 105 -28 14 6 10 10 -15 20 -33 14 -90 19
-90 8z"/>
<path d="M347 1464 c7 -20 29 -23 29 -5 0 9 -8 17 -17 17 -9 0 -15 -6 -12 -12z"/>
<path d="M260 1450 c0 -12 7 -28 15 -36 13 -14 15 -13 15 6 0 12 -4 18 -10 15
-5 -3 -7 0 -4 8 3 8 1 18 -5 22 -7 3 -11 -3 -11 -15z"/>
<path d="M415 1439 c-4 -6 -5 -12 -2 -15 2 -3 7 2 10 11 7 17 1 20 -8 4z"/>
<path d="M346 1415 c16 -13 37 -26 47 -29 17 -4 17 -3 4 17 -8 12 -29 25 -47
28 l-33 7 29 -23z"/>
<path d="M451 1423 c7 -12 15 -20 18 -17 3 2 -3 12 -13 22 -17 16 -18 16 -5
-5z"/>
<path d="M2630 1410 c29 -24 63 -22 68 3 3 14 -4 17 -45 17 l-48 0 25 -20z"/>
<path d="M2436 1358 c3 -5 10 -6 15 -3 13 9 11 12 -6 12 -8 0 -12 -4 -9 -9z"/>
<path d="M200 1350 c0 -5 5 -10 11 -10 5 0 7 5 4 10 -3 6 -8 10 -11 10 -2 0
-4 -4 -4 -10z"/>
<path d="M2565 1350 c-3 -6 1 -7 9 -4 18 7 21 14 7 14 -6 0 -13 -4 -16 -10z"/>
<path d="M2660 1330 c6 -11 20 -24 31 -30 20 -11 20 -11 4 19 -8 17 -22 31
-31 31 -12 0 -12 -4 -4 -20z"/>
<path d="M2566 1303 c-3 -7 1 -10 8 -7 7 3 19 -2 26 -11 7 -8 18 -15 26 -15 7
0 16 -4 19 -10 4 -6 -4 -6 -22 1 -25 9 -85 5 -106 -8 -16 -10 17 -23 56 -23
20 0 37 -2 37 -4 0 -1 -5 -17 -11 -34 -7 -20 -15 -29 -22 -25 -7 4 -6 -1 2
-10 17 -22 23 -21 49 3 21 19 22 20 31 1 6 -10 7 -21 4 -25 -3 -3 -2 -6 4 -6
6 0 14 -12 18 -27 3 -15 9 -23 13 -17 10 13 72 34 72 23 0 -5 5 -9 10 -9 6 0
10 9 10 20 0 21 15 27 25 10 3 -5 11 -10 18 -10 6 0 4 8 -6 17 -15 15 -20 16
-39 4 -18 -11 -20 -11 -14 4 3 9 6 21 6 27 0 6 6 5 15 -2 9 -7 17 -11 20 -9 2
3 -5 10 -16 17 -17 11 -21 9 -29 -13 -5 -14 -15 -25 -22 -25 -6 0 -21 -9 -32
-19 l-21 -20 1 49 c0 28 3 53 7 57 4 3 7 22 7 41 l0 35 -22 -29 c-35 -46 -38
-49 -38 -31 0 9 9 26 20 37 20 20 20 20 -5 36 -30 19 -93 24 -99 7z"/>
<path d="M2480 1299 c0 -4 6 -9 13 -12 8 -3 14 0 14 7 0 7 -6 13 -14 13 -7 0
-13 -4 -13 -8z"/>
<path d="M2753 1252 c-7 -4 -16 -22 -19 -39 -6 -29 -4 -31 16 -26 18 5 21 11
16 34 -3 17 -1 29 7 33 7 2 8 5 2 5 -5 0 -16 -3 -22 -7z"/>
<path d="M2516 1201 c2 -3 -8 -18 -23 -34 l-28 -29 35 6 c19 3 41 7 48 8 6 1
12 10 12 20 0 10 5 18 10 18 6 0 10 4 10 8 0 5 -15 8 -34 8 -19 0 -33 -3 -30
-5z"/>
<path d="M2641 1132 c-8 -14 -5 -26 12 -50 29 -40 60 -46 88 -16 l22 24 -22 0
c-14 0 -20 -4 -15 -12 4 -7 3 -8 -5 -4 -6 4 -20 2 -29 -5 -9 -7 -14 -10 -10
-5 4 5 0 23 -9 40 -10 17 -16 34 -15 39 4 14 -7 7 -17 -11z"/>
<path d="M375 1110 c3 -5 8 -10 11 -10 2 0 4 5 4 10 0 6 -5 10 -11 10 -5 0 -7
-4 -4 -10z"/>
<path d="M2474 1106 c-3 -9 -3 -27 0 -41 8 -30 2 -31 -32 -5 -18 15 -28 18
-36 10 -8 -8 -6 -15 8 -26 42 -31 86 -8 86 45 0 25 -18 37 -26 17z"/>
<path d="M384 1085 c-10 -8 -14 -15 -8 -15 5 0 19 7 30 15 10 8 14 15 8 15 -5
0 -19 -7 -30 -15z"/>
<path d="M343 1068 c-18 -24 -24 -38 -16 -38 10 0 36 40 30 46 -2 3 -9 -1 -14
-8z"/>
<path d="M414 1065 c-10 -8 -14 -14 -9 -15 15 0 40 18 34 24 -3 3 -14 -1 -25
-9z"/>
<path d="M631 1062 c-10 -18 -10 -27 0 -38 13 -16 39 -19 39 -4 0 6 -10 10
-21 10 -18 0 -19 3 -9 15 6 8 10 20 8 27 -3 8 -9 5 -17 -10z"/>
<path d="M2614 1074 c-7 -3 1 -19 19 -40 37 -41 41 -61 21 -92 -8 -12 -12 -27
-9 -32 3 -5 -2 -13 -11 -18 -15 -9 -15 -10 4 -16 28 -9 28 -22 0 -29 -28 -8
-35 -3 -43 33 -8 35 -23 48 -31 26 -3 -9 2 -28 12 -44 10 -15 18 -29 17 -32
-3 -11 85 -4 100 9 9 7 25 10 34 7 16 -6 16 -5 0 8 -15 12 -17 18 -7 36 6 12
9 28 6 36 -3 8 -2 13 3 10 9 -6 41 36 41 54 0 5 -6 10 -14 10 -8 0 -16 6 -18
13 -3 6 -16 12 -31 12 -14 1 -23 -3 -21 -7 3 -4 0 -8 -5 -8 -6 0 -17 16 -25
35 -15 34 -20 38 -42 29z"/>
<path d="M586 1049 c-12 -18 -13 -26 -3 -38 10 -12 9 -14 -6 -8 -10 4 -23 7
-29 7 -6 0 -4 8 5 18 24 26 21 39 -3 17 -11 -10 -20 -24 -20 -32 0 -17 42 -34
55 -22 5 5 18 9 30 10 17 0 16 3 -7 13 -26 11 -27 13 -11 29 9 9 14 19 11 22
-3 4 -13 -4 -22 -16z"/>
<path d="M355 1030 c-8 -16 -15 -35 -15 -42 0 -13 19 20 33 55 10 28 -1 20
-18 -13z"/>
<path d="M2507 1053 c-3 -5 -4 -23 -2 -40 3 -31 2 -32 -18 -18 -12 8 -30 15
-41 15 -18 0 -18 -2 -6 -14 19 -17 67 -29 74 -18 11 18 16 71 7 77 -5 3 -12 2
-14 -2z"/>
<path d="M416 1032 c-3 -5 8 -6 25 -4 16 2 29 6 29 8 0 8 -49 4 -54 -4z"/>
<path d="M2585 1031 c11 -5 24 -6 29 -3 4 2 5 -4 2 -15 -4 -13 1 -29 13 -44
19 -22 20 -23 21 -4 0 38 -23 68 -55 71 -24 3 -26 2 -10 -5z"/>
<path d="M382 1018 c-14 -14 -16 -42 -3 -34 7 5 23 46 17 46 -1 0 -7 -5 -14
-12z"/>
<path d="M434 985 c-16 -40 -17 -48 -5 -41 4 3 11 19 15 36 3 17 9 29 14 26 4
-2 14 -1 22 5 12 7 10 9 -8 9 -17 0 -27 -9 -38 -35z"/>
<path d="M290 1003 c0 -6 8 -17 18 -24 16 -13 16 -13 2 6 -8 11 -16 22 -17 24
-2 2 -3 0 -3 -6z"/>
<path d="M400 996 c-6 -9 -10 -21 -8 -28 3 -8 9 -4 17 10 15 28 9 39 -9 18z"/>
<path d="M2536 993 c-3 -10 -4 -28 -1 -41 5 -26 6 -26 -34 -6 -18 9 -35 13
-38 10 -11 -11 31 -35 59 -36 23 0 28 5 34 36 7 39 -9 70 -20 37z"/>
<path d="M2570 1006 c0 -2 7 -7 16 -10 8 -3 12 -2 9 4 -6 10 -25 14 -25 6z"/>
<path d="M475 987 c-16 -13 -15 -14 13 -9 18 2 32 8 32 13 0 13 -24 11 -45 -4z"/>
<path d="M2580 975 c0 -14 31 -65 39 -65 11 0 2 39 -12 58 -10 12 -27 17 -27
7z"/>
<path d="M520 960 c-12 -8 -11 -10 7 -10 12 0 25 5 28 10 8 13 -15 13 -35 0z"/>
<path d="M278 953 c6 -2 18 -2 25 0 6 3 1 5 -13 5 -14 0 -19 -2 -12 -5z"/>
<path d="M450 938 c0 -19 2 -20 10 -8 13 19 13 30 0 30 -5 0 -10 -10 -10 -22z"/>
<path d="M486 944 c-3 -9 -2 -23 4 -32 7 -14 9 -10 10 16 0 35 -5 41 -14 16z"/>
<path d="M555 933 c11 -3 23 -10 26 -15 4 -6 16 -7 30 -2 l24 8 -25 7 c-14 4
-36 7 -50 7 -20 0 -21 -1 -5 -5z"/>
<path d="M518 905 c2 -14 6 -25 8 -25 2 0 4 11 4 25 0 14 -4 25 -9 25 -4 0 -6
-11 -3 -25z"/>
<path d="M550 891 c0 -11 5 -23 10 -26 6 -4 10 5 10 19 0 14 -4 26 -10 26 -5
0 -10 -9 -10 -19z"/>
<path d="M615 900 c-3 -5 3 -10 14 -10 11 0 23 5 26 10 3 6 -3 10 -14 10 -11
0 -23 -4 -26 -10z"/>
<path d="M590 871 c0 -11 5 -23 10 -26 6 -3 10 3 10 14 0 11 -4 23 -10 26 -5
3 -10 -3 -10 -14z"/>
<path d="M628 850 c2 -16 8 -30 12 -30 4 0 5 11 3 24 -4 21 -2 24 15 19 11 -2
23 0 26 6 5 7 -5 11 -27 11 -32 0 -33 -2 -29 -30z"/>
<path d="M2257 859 c-10 -38 -8 -52 13 -79 l20 -25 0 46 c0 25 -6 53 -13 64
-13 17 -14 17 -20 -6z"/>
<path d="M2536 827 c-4 -28 -3 -54 4 -67 13 -25 23 -26 16 -2 -2 9 -8 28 -12
42 -6 24 -6 24 12 9 32 -28 114 -32 114 -7 0 7 -18 9 -50 5 -43 -5 -50 -4 -50
12 0 9 -6 26 -14 36 -12 17 -14 14 -20 -28z"/>
<path d="M2396 821 c-3 -5 1 -14 8 -20 16 -13 32 2 21 19 -8 12 -22 13 -29 1z"/>
<path d="M469 783 c-13 -16 -12 -17 4 -4 9 7 17 15 17 17 0 8 -8 3 -21 -13z"/>
<path d="M2210 777 c0 -27 27 -68 53 -81 30 -14 33 -14 53 5 28 26 36 55 19
69 -11 9 -17 5 -29 -18 -8 -16 -12 -32 -9 -36 4 -3 3 -6 -1 -6 -5 0 -17 11
-28 25 -18 23 -58 52 -58 42z"/>
<path d="M2490 757 c0 -12 9 -28 20 -35 24 -15 25 -10 5 28 -19 36 -25 38 -25
7z"/>
<path d="M2570 766 c0 -10 71 -38 78 -31 3 3 1 10 -4 15 -12 12 -74 25 -74 16z"/>
<path d="M2465 720 c-8 -13 1 -27 25 -40 15 -8 17 -7 13 10 -7 26 -29 44 -38
30z"/>
<path d="M2570 715 c7 -8 27 -15 44 -15 29 1 30 1 12 15 -11 8 -31 15 -44 15
-21 0 -22 -2 -12 -15z"/>
<path d="M2347 709 c-18 -11 -52 -68 -44 -76 9 -9 54 27 65 53 18 38 13 43
-21 23z"/>
<path d="M811 678 c-11 -30 -5 -38 27 -37 24 2 24 2 4 6 -18 4 -21 9 -16 29 8
30 -4 32 -15 2z"/>
<path d="M2220 684 c0 -18 53 -74 69 -74 19 0 12 18 -20 55 -34 38 -49 44 -49
19z"/>
<path d="M2436 684 c-8 -21 73 -104 103 -104 30 0 26 19 -6 25 -44 10 -58 20
-61 48 -4 34 -27 54 -36 31z"/>
<path d="M2549 675 c38 -17 61 -19 61 -6 0 13 -26 21 -63 21 l-32 -1 34 -14z"/>
<path d="M775 660 c-8 -26 1 -40 28 -39 l22 0 -23 11 c-15 8 -21 17 -16 30 3
10 3 18 0 18 -2 0 -7 -9 -11 -20z"/>
<path d="M2534 635 c22 -13 44 -21 49 -18 15 9 -15 30 -53 37 l-35 6 39 -25z"/>
<path d="M2410 633 c1 -10 7 -29 15 -43 l14 -25 1 27 c0 32 -9 58 -21 58 -5 0
-9 -8 -9 -17z"/>
<path d="M2343 630 c-12 -5 -29 -23 -38 -39 -15 -31 -15 -31 9 -21 21 8 24 6
30 -21 9 -46 29 -36 21 11 -7 43 8 57 19 18 7 -28 64 -68 95 -68 20 0 21 2 11
15 -7 8 -25 15 -41 15 -28 0 -40 10 -44 39 -8 58 -20 68 -62 51z"/>
<path d="M2205 609 c11 -35 24 -48 46 -46 25 2 24 9 -3 34 -40 35 -51 38 -43
12z"/>
<path d="M1978 594 c-11 -10 3 -34 19 -34 8 0 13 7 11 17 -3 18 -20 27 -30 17z"/>
<path d="M2469 561 c28 -25 75 -31 51 -7 -8 8 -28 18 -45 21 l-30 6 24 -20z"/>
<path d="M1610 557 c0 -8 8 -25 18 -37 14 -18 22 -20 43 -11 15 5 29 17 32 25
9 23 -16 20 -39 -5 l-19 -21 -5 28 c-5 29 -30 46 -30 21z"/>
<path d="M1591 500 c0 -40 22 -62 51 -51 13 5 30 16 37 25 21 25 -10 21 -37
-4 -21 -20 -22 -20 -22 -2 0 10 -7 27 -15 38 -14 18 -14 18 -14 -6z"/>
<path d="M2396 499 c19 -21 58 -26 52 -7 -3 7 -19 15 -37 19 -31 6 -31 6 -15
-12z"/>
<path d="M1337 495 c-10 -7 -22 -29 -27 -49 -7 -33 -6 -35 11 -25 10 5 26 23
34 39 25 49 18 63 -18 35z"/>
<path d="M956 473 c-6 -14 -5 -15 5 -6 7 7 10 15 7 18 -3 3 -9 -2 -12 -12z"/>
<path d="M1252 453 c-7 -12 -12 -31 -12 -42 0 -23 -16 -29 -23 -8 -2 6 -9 -5
-16 -26 -11 -32 -10 -41 4 -63 9 -14 13 -33 10 -44 -7 -22 10 -35 50 -36 17 0
37 -2 45 -5 9 -2 14 2 12 10 -6 30 10 53 33 48 15 -2 26 1 30 11 9 24 -12 39
-46 34 l-32 -5 39 36 c38 35 38 36 14 37 -14 0 -37 -7 -52 -14 -27 -14 -28
-14 -29 12 -1 15 -4 38 -8 52 l-7 25 -12 -22z m123 -133 c3 -5 1 -10 -4 -10
-6 0 -11 5 -11 10 0 6 2 10 4 10 3 0 8 -4 11 -10z"/>
<path d="M1570 450 c0 -31 18 -60 38 -60 23 1 55 26 50 40 -2 7 -13 4 -29 -9
-29 -23 -39 -19 -39 15 0 13 -4 26 -10 29 -5 3 -10 -3 -10 -15z"/>
<path d="M2496 417 c3 -10 9 -15 12 -12 3 3 0 11 -7 18 -10 9 -11 8 -5 -6z"/>
<path d="M1386 352 c-3 -5 1 -9 9 -9 8 0 12 4 9 9 -3 4 -7 8 -9 8 -2 0 -6 -4
-9 -8z"/>
<path d="M1146 297 c3 -10 9 -15 12 -12 3 3 0 11 -7 18 -10 9 -11 8 -5 -6z"/>
<path d="M2050 282 c0 -15 11 -21 27 -15 12 5 12 7 1 14 -17 11 -28 11 -28 1z"/>
<path d="M1117 245 c-3 -7 -3 -15 0 -18 7 -7 33 3 33 13 0 14 -28 19 -33 5z"/>
<path d="M2065 244 c-13 -5 -7 -72 7 -81 7 -4 8 7 4 31 -6 32 -4 36 13 36 11
0 23 5 26 10 6 10 -30 13 -50 4z"/>
<path d="M2026 223 c-4 -9 -2 -21 4 -27 7 -7 10 -2 10 17 0 31 -5 34 -14 10z"/>
<path d="M2103 220 c-24 -10 -22 -40 4 -61 12 -11 14 -8 11 16 -2 24 2 30 22
35 22 5 23 7 7 13 -10 4 -19 7 -20 6 -1 0 -12 -4 -24 -9z"/>
<path d="M1625 210 c-3 -5 -1 -10 4 -10 6 0 11 5 11 10 0 6 -2 10 -4 10 -3 0
-8 -4 -11 -10z"/>
<path d="M1530 178 c-12 -22 -12 -22 6 -6 10 10 15 20 12 24 -4 3 -12 -5 -18
-18z"/>
<path d="M2149 169 c13 -11 26 -17 29 -14 8 8 -20 35 -37 35 -12 -1 -11 -5 8
-21z"/>
<path d="M1556 171 c-4 -7 -5 -15 -2 -18 9 -9 19 4 14 18 -4 11 -6 11 -12 0z"/>
<path d="M1630 150 c0 -6 7 -10 15 -10 8 0 15 2 15 4 0 2 -7 6 -15 10 -8 3
-15 1 -15 -4z"/>
<path d="M1530 141 c0 -9 33 -41 44 -41 4 0 2 8 -3 19 -11 20 -41 36 -41 22z"/>
<path d="M1570 142 c0 -9 44 -32 58 -32 10 1 -38 40 -49 40 -5 0 -9 -4 -9 -8z"/>
</g>
</svg>
